<?xml version="1.0" encoding="UTF-8"?>
<svg width="30px" height="30px" viewBox="0 0 30 30" version="1.1" xmlns="http://www.w3.org/2000/svg" xmlns:xlink="http://www.w3.org/1999/xlink">
    <g id="Talent-dashboard" stroke="none" stroke-width="1" fill="none" fill-rule="evenodd">
        <g id="Dev---Dashboard-New" transform="translate(-1433.000000, -644.000000)">
            <g id="icon/dollar" transform="translate(1433.000000, 644.000000)">
                <circle id="Oval" fill="#4C00FF" cx="15" cy="15" r="15"></circle>
                <path d="M16.1636364,6.66666667 L16.1636364,8.6938821 C17.4727273,8.81657465 18.5757576,9.14003681 19.4727273,9.66148012 L18.1272727,12.0707155 C17.3515152,11.524176 16.5878788,11.2536947 15.8363636,11.2536947 C15.3757576,11.2536947 15,11.3512911 14.7090909,11.5436953 C14.4181818,11.738888 14.2727273,11.9591768 14.2727273,12.2045619 C14.2727273,12.4276393 14.3878788,12.6423512 14.6181818,12.8403324 C14.8484848,13.041102 15.1515152,13.2056215 15.5272727,13.3283141 L16.6,13.6601417 C17.8,14.0421616 18.6666667,14.5078356 19.2,15.059952 C19.7333333,15.60928 20,16.325916 20,17.2070716 C20,17.7452457 19.9333333,18.219285 19.8,18.6291897 C19.6666667,19.0418828 19.4484848,19.4099604 19.1454545,19.736211 C18.8424242,20.0596732 18.4454545,20.3413083 17.9545455,20.5866934 C17.4636364,20.8320785 16.8666667,21.0551559 16.1636364,21.2559255 L16.1636364,23.3333333 L14.4909091,23.3333333 L14.4909091,21.342368 C14.1151515,21.342368 13.7151515,21.2977525 13.2909091,21.2140985 C12.8666667,21.1304445 12.4484848,21.0189058 12.0363636,20.8822709 C11.6242424,20.7400591 11.2393939,20.578328 10.8818182,20.3942892 C10.5242424,20.2102504 10.230303,20.0178462 10,19.8170766 L11.4727273,17.293514 C12.6121212,18.219285 13.7212121,18.6821705 14.8,18.6821705 C15.2484848,18.6821705 15.6393939,18.5706319 15.9727273,18.344766 C16.3060606,18.1216887 16.4727273,17.8316881 16.4727273,17.4747644 C16.4727273,16.9839942 16.0787879,16.6214935 15.2909091,16.3872623 L14.2545455,16.0861079 C13.6363636,15.907646 13.1090909,15.7124533 12.6727273,15.5005298 C12.2363636,15.2913948 11.8787879,15.0432212 11.6,14.7643745 C11.3212121,14.4883163 11.1151515,14.1704311 10.9818182,13.8190843 C10.8484848,13.4677374 10.7818182,13.0634097 10.7818182,12.6061012 C10.7818182,12.1264849 10.8575758,11.6635994 11.0090909,11.2174446 C11.1606061,10.7740784 11.3909091,10.3725392 11.7,10.0211923 C12.0090909,9.66984552 12.3939394,9.37705649 12.8545455,9.13724834 C13.3151515,8.89465172 13.8606061,8.74686297 14.4909091,8.6938821 L14.4909091,6.66666667 L16.1636364,6.66666667 Z" id="Fill-6" fill="#FFFFFF"></path>
            </g>
        </g>
    </g>
</svg>